<?xml version="1.0" encoding="UTF-8"?>
<svg width="100px" height="18px" viewBox="0 0 100 18" version="1.1" xmlns="http://www.w3.org/2000/svg" xmlns:xlink="http://www.w3.org/1999/xlink">
    <title>smaply-logo-with-name-dark</title>
    <defs>
        <rect id="path-1" x="0" y="0" width="100" height="17.7623829"></rect>
    </defs>
    <g id="Page-1" stroke="none" stroke-width="1" fill="none" fill-rule="evenodd">
        <g id="smaply-logo-with-name-dark">
            <mask id="mask-2" fill="white">
                <use xlink:href="#path-1"></use>
            </mask>
            <g id="Rechteck_1"></g>
            <g id="Gruppe_1" mask="url(#mask-2)" fill-rule="nonzero">
                <path d="M32.4723507,8.38183321 L30.4737456,7.77111576 C29.9743874,7.60466302 29.9187078,7.54898341 29.9187078,7.32685105 C29.9187078,7.1047187 29.9187078,6.43890774 31.084463,6.43890774 C31.6167835,6.44408347 32.1293608,6.64116456 32.5280303,6.99394557 C32.7090036,7.16448226 32.9459085,7.26324473 33.1944273,7.27175754 C33.4451572,7.27394012 33.6858921,7.17358099 33.8608244,6.99394557 C34.0464874,6.82232145 34.1520573,6.58096974 34.1520573,6.32813462 C34.1520573,6.07529949 34.0464874,5.83394778 33.8608244,5.66232366 C33.1390062,4.94351084 32.1593752,4.54372175 31.1407288,4.55224799 C29.8642004,4.55224799 27.9757823,5.27373856 27.9757823,7.27175754 C27.9070526,8.40083946 28.6940972,9.40271574 29.8073485,9.6032681 L32.028086,10.3247587 C32.5280303,10.4912114 32.5831238,10.7690234 32.5831238,10.9911557 C32.5831238,11.3240612 32.5831238,11.9875278 31.084463,11.9875278 C30.5000413,11.9446579 29.9407719,11.732437 29.4750292,11.3768103 C29.0892863,11.0311728 28.4983773,11.0558699 28.1428211,11.4324899 C27.9571281,11.6042186 27.8515486,11.8456658 27.8515486,12.0985939 C27.8515486,12.3515221 27.9571281,12.5929693 28.1428211,12.764698 C28.938989,13.5139415 29.9911887,13.930922 31.084463,13.9304536 C34.2494095,13.9304536 34.5817289,11.879099 34.5817289,11.0444909 C34.6374085,9.65660331 33.9153318,8.82375351 32.4717646,8.3800749" id="Pfad_1" fill="#FFFFF0"></path>
                <path d="M44.1293174,4.49598228 C43.2830521,4.49274922 42.4832174,4.88249001 41.9642595,5.55096443 C41.3221795,4.82341049 40.3795766,4.43390518 39.4112027,4.49598228 C38.7917149,4.48362253 38.1859228,4.67901937 37.6904096,5.05102011 C37.5071804,4.7700904 37.1929343,4.602463 36.8575598,4.6067554 C36.6068168,4.6051833 36.3658881,4.70409551 36.1885826,4.88140108 C36.011277,5.05870664 35.9123648,5.29963533 35.9139184,5.55037833 L35.9139184,12.7670424 C35.9139184,13.2881909 36.3364113,13.7107471 36.8575598,13.7107471 C37.3787083,13.7107471 37.8011827,13.2881909 37.8011828,12.7670424 L37.8011828,8.21538047 C37.7532309,7.76958224 37.8939017,7.32404481 38.1891474,6.98660529 C38.484393,6.64916577 38.9073053,6.45057797 39.3555231,6.43890774 C40.2991461,6.43890774 40.7434108,6.71671971 40.7434108,8.21538047 L40.7434108,12.7670424 C40.7418387,13.0177854 40.8407509,13.258714 41.0180564,13.4360196 C41.195362,13.6133252 41.4362907,13.7122374 41.6870337,13.7107471 C42.2017191,13.6953827 42.615374,13.2817278 42.6306566,12.7670424 L42.6306566,8.10402124 C42.6306566,7.60466302 42.7414297,6.38322813 43.9628646,6.38322813 C44.9064876,6.38322813 45.3501662,6.6610401 45.3501662,8.15970085 L45.3501662,12.7670424 C45.3485941,13.0177854 45.4475063,13.258714 45.6248118,13.4360196 C45.8021174,13.6133252 46.0430461,13.7122374 46.2937891,13.7107471 C46.8265008,13.7174685 47.2680064,13.2993367 47.2901611,12.7670424 L47.2901611,8.38183321 C47.4572,5.66232366 46.4573113,4.49598228 44.1252147,4.49598228" id="Pfad_2" fill="#FFFFF0"></path>
                <path d="M56.6185478,12.1006453 C56.3259702,11.7618205 56.1678911,11.3274158 56.1742831,10.8797965 L56.1742831,5.55096443 C56.1758552,5.30022143 56.0769429,5.05929274 55.8996374,4.88198718 C55.7223318,4.70468162 55.4814031,4.6057694 55.2306601,4.6073415 C54.8829796,4.61026843 54.5641969,4.80140346 54.3978103,5.10669972 C53.8780109,4.74098291 53.2568829,4.54691883 52.6213376,4.55157698 C50.4562798,4.55157698 48.957619,6.10600226 48.957619,8.43751282 L48.957619,9.88049397 C48.957619,12.2120045 50.4011863,13.8214384 52.565658,13.8214384 C53.4073786,13.8139858 54.2171293,13.4980517 54.8414889,12.9334951 C54.9582742,13.1415267 55.1083496,13.329022 55.2857536,13.4885329 C55.4668736,13.6587642 55.7037326,13.7572992 55.9521507,13.7657588 C56.4724984,13.7638304 56.8938452,13.3424835 56.8957736,12.8221359 C56.9070782,12.5969435 56.82698,12.3767262 56.6736413,12.2114184 C56.6736413,12.1563249 56.6736413,12.1006453 56.6179617,12.1006453 M52.5105645,11.8785129 C51.4555823,11.8785129 50.845451,11.2121159 50.845451,10.1020402 L50.845451,8.21479437 C50.8002015,7.74599627 50.9669057,7.28151781 51.2999366,6.94848691 C51.6329675,6.615456 52.097446,6.44875178 52.5662441,6.49400125 C53.0397708,6.48729366 53.4933959,6.68417299 53.8119062,7.03463521 C54.1304165,7.38509744 54.2831655,7.8554217 54.2313576,8.32615359 L54.2313576,10.1020402 C54.278671,10.5762495 54.1147054,11.0472249 53.783131,11.389528 C53.4515567,11.7318312 52.9860396,11.9107065 52.5105645,11.8785129" id="Pfad_3" fill="#FFFFF0"></path>
                <path d="M61.7809271,4.49598228 C61.1419267,4.46635207 60.512926,4.66287588 60.0044544,5.05102011 C59.8306898,4.76002536 59.5100471,4.58921147 59.1716046,4.6073415 C58.9208616,4.6057694 58.6799329,4.70468162 58.5026273,4.88198718 C58.3253218,5.05929274 58.2264095,5.30022143 58.2279632,5.55096443 L58.2279632,15.4308723 C58.2279632,15.9521827 58.6505872,16.3747883 59.1718976,16.3747883 C59.693208,16.3747883 60.1158136,15.9521827 60.1158136,15.4308723 L60.1158136,13.4328533 C60.6371561,13.6785913 61.2046661,13.8110302 61.7809271,13.8214384 C64.0010784,13.8214384 65.3338725,12.3778712 65.3338725,9.99126709 L65.3338725,8.32615359 C65.3338725,5.93954952 64.0016645,4.49598228 61.7809271,4.49598228 M61.7809271,6.43890774 C62.8359092,6.43890774 63.3352675,6.99394557 63.3352675,8.10402124 L63.3352675,10.2139855 C63.3352675,11.3240612 62.7802296,11.879099 61.7809271,11.879099 C61.3244541,11.9349884 60.867667,11.7776166 60.5424815,11.4524311 C60.217296,11.1272456 60.0599242,10.6704586 60.1158136,10.2139855 L60.1158136,8.27047398 C60.0878567,7.3113551 60.8235098,6.50190371 61.7809271,6.43832164" id="Pfad_4" fill="#FFFFF0"></path>
                <path d="M70.4399862,11.7677398 L69.8849483,11.7677398 L69.8849483,2.99732152 C69.8696658,2.48263609 69.4560108,2.06898115 68.9413254,2.05368363 L67.3863989,2.05368363 C67.1357572,2.05228379 66.8949801,2.15126545 66.7178018,2.32855378 C66.5406236,2.50584211 66.4417916,2.74668073 66.4433621,2.99732152 C66.4362387,3.529936 66.854198,3.97153371 67.3863989,3.99369355 L67.9414368,3.99369355 L67.9414368,11.8234194 L67.3307193,11.8234194 C66.8095708,11.8234195 66.3870964,12.2458938 66.3870964,12.7670424 C66.3870964,13.2881909 66.8095708,13.7106837 67.3307193,13.7106837 L70.4370557,13.7106837 C70.6877987,13.7122374 70.9287274,13.6133252 71.1060329,13.4360196 C71.2833385,13.258714 71.3822507,13.0177854 71.3806786,12.7670424 C71.3934789,12.5082172 71.2999331,12.2554062 71.1217406,12.0672526 C70.9435482,11.8790991 70.696194,11.7719536 70.4370557,11.7706703" id="Pfad_5" fill="#FFFFF0"></path>
                <path d="M78.8212333,5.05336451 C78.7020258,4.80427585 78.4782422,4.62108251 78.2105158,4.55342019 C77.7081249,4.44103312 77.2028356,4.72987874 77.0447605,5.21981725 L75.3239674,9.93793188 L73.5474947,5.21981725 C73.4010792,4.82388114 73.025976,4.55897907 72.6038718,4.55342019 C72.507836,4.54480165 72.4113569,4.56413819 72.3260598,4.60909981 C72.0725875,4.67894631 71.8668903,4.86422576 71.771022,5.10904413 C71.6700615,5.33598623 71.6503976,5.59078918 71.7153424,5.8305347 L74.2683992,12.7693868 L73.6600261,14.4895938 L73.3271207,14.4895938 C72.8059721,14.4895938 72.3834977,14.9120681 72.3834977,15.4332167 C72.3834977,15.9543653 72.8059721,16.3768396 73.3271207,16.3768396 L73.9929316,16.3768396 C74.5325745,16.4389726 75.0420331,16.1148161 75.2143665,15.5996694 L78.7667259,5.77485509 C78.9215712,5.5646441 78.9427392,5.28445337 78.8212333,5.05336451" id="Pfad_6" fill="#FFFFF0"></path>
                <path d="M20.3717054,14.9871937 C18.7065919,14.4872494 17.485157,13.210721 16.3750813,11.7677398 C16.2126248,11.8136443 16.0437125,11.8324563 15.875137,11.8234194 C14.9267681,11.818611 14.1591523,11.0509952 14.1543439,10.1026263 C14.1610329,9.76892228 14.2569591,9.44309705 14.4321559,9.15900339 C13.1556275,7.54956951 11.8234194,6.272455 9.71345513,5.99405693 C9.58819803,6.84150586 8.84897158,7.46138853 7.99266201,7.43703808 C7.35383565,7.43471534 6.77219745,7.06849028 6.49400125,6.49341515 C5.05102011,7.27234364 4.27384992,8.71415259 3.44158622,10.2133994 C2.90135136,11.3346231 2.18946664,12.3646808 1.33162192,13.2664006 L1.33162192,13.4885329 C1.34457781,14.2911167 0.785796273,14.9898395 1.39331789e-16,15.1536464 L1.39331789e-16,16.3194017 C0.00712760372,17.092171 0.615441163,17.7254134 1.38730153,17.7635551 L20.3183702,17.7635551 C21.0505593,17.7550091 21.6420322,17.1635361 21.6505782,16.431347 C20.9813943,16.2383647 20.48398,15.6760901 20.3740498,14.9883659" id="Pfad_7" fill="#BF0418"></path>
                <path d="M20.3154397,8.13151629e-20 L1.38730153,8.13151629e-20 C0.655112433,0.00854597695 0.0636394894,0.60001892 0.0550935124,1.33220802 L0.0550935124,11.879099 C0.368166718,11.9779244 0.65351105,12.1492113 0.887943312,12.3790434 C1.54976338,11.5709818 2.1264162,10.6967714 2.60873642,9.77030694 C3.49667974,8.16028696 4.49598228,6.38381423 6.32813462,5.55037833 C6.39983116,4.64991696 7.14568828,3.95232717 8.04892773,3.94094444 C8.74582498,3.94671444 9.37506741,4.35918217 9.65836161,4.9959266 C12.2120045,5.21805895 13.8196801,6.77239932 15.209326,8.49319243 C15.4325774,8.37944033 15.6802887,8.32209043 15.9308166,8.32615359 C16.8791855,8.33096205 17.6468013,9.09857778 17.6516097,10.0469467 C17.6480062,10.476215 17.490348,10.8899117 17.207345,11.212702 C18.0385162,12.4282989 19.1910547,13.3890859 20.5363998,13.9878911 C20.770427,13.5197172 21.1955022,13.1756393 21.7021551,13.0442682 L21.7021551,1.33220802 C21.6851764,0.582243326 21.0654823,-0.0130925454 20.3154397,8.13151629e-20" id="Pfad_8" fill="#E43417"></path>
                <path d="M21.7033273,13.0442682 C21.1961644,13.1751966 20.7705609,13.5193561 20.5363998,13.9878911 C19.2047779,13.5436264 18.1497957,12.4892304 17.2061728,11.2121159 C17.4892667,10.8893804 17.6469383,10.4756485 17.6504375,10.0463606 C17.6456291,9.09799168 16.8780133,8.33037595 15.9296444,8.32556749 C15.6791856,8.32151309 15.4315222,8.37865073 15.2081538,8.49202023 C13.8208523,6.71554751 12.2108323,5.21688675 9.65718941,4.99475439 C9.37369003,4.35791779 8.74423499,3.9454609 8.04716942,3.93977224 C7.14490667,3.95197533 6.40004068,4.64860528 6.32754851,5.54803392 C4.49598228,6.43890774 3.49667974,8.15970085 2.60873642,9.76796254 C2.12638379,10.694408 1.54973311,11.5686151 0.887943312,12.376699 C0.668231524,12.1287417 0.377400513,11.9545706 0.0550935124,11.8779268 L0.0550935124,15.2644196 C0.831456475,15.0849112 1.38279774,14.3955527 1.38730153,13.59872 L1.38730153,13.3765876 C2.22045846,12.4552708 2.92977347,11.4291284 3.49726584,10.3241726 C4.33011564,8.82551181 5.16237934,7.38194457 6.54968087,6.60477438 C6.83936542,7.16945267 7.41392561,7.53122111 8.04834163,7.54839731 C8.8916931,7.53671521 9.61065481,6.93382566 9.76913474,6.10541616 C11.879099,6.38322813 13.2664006,7.65975653 14.4872494,9.27036262 C14.3125468,9.55464317 14.2168478,9.88038424 14.2100235,10.2139855 C14.2135522,11.1631736 14.9816327,11.9320389 15.9308166,11.936537 C16.0972694,11.936537 16.2637221,11.8808573 16.4301748,11.8808573 C17.5402505,13.268745 18.7060058,14.5452734 20.4267989,15.1003112 C20.5235099,15.8135869 21.0557708,16.3903395 21.7590069,16.5438785 L21.7590069,13.0442682 L21.7033273,13.0442682 Z" id="Pfad_9" fill="#FFFFFF"></path>
                <path d="M81.9439804,9.47960075 C82.2024511,11.4981333 82.9614521,12.4833694 84.7056893,12.4833694 C86.4499264,12.4833694 87.2083414,11.4178374 87.2083414,10.2708374 C87.2083414,8.6725394 86.3520475,7.97800948 84.7379249,7.97800948 L83.9308635,7.97800948 L83.9308635,6.81518471 L84.26963,6.81518471 C84.8832779,6.81518471 86.8209285,6.73430274 86.8209285,5.00647642 C86.8209285,3.82782691 86.0138672,3.11747226 84.721514,3.11747226 C83.4139222,3.11747226 82.6549212,3.93801394 82.4773325,5.26494705 L81.2178011,5.03871198 C81.3396416,3.20881436 82.9062536,1.81461838 84.7379249,1.90600109 C86.6263429,1.90658719 88.1126955,2.95629443 88.1126955,4.92559445 C88.1392216,6.01898825 87.4118136,6.98765324 86.3543919,7.26706873 L86.3543919,7.2993043 C87.4679842,7.55777493 88.5018667,8.54242494 88.5018667,10.3030729 C88.5018667,12.2565482 86.9680399,13.6942544 84.7232723,13.6942544 C82.5599728,13.6942544 80.9610887,12.5314297 80.638147,9.73807138 L81.9439804,9.47960075 Z" id="Pfad_10" fill="#FFFFF0"></path>
                <path d="M91.5871034,7.65506772 C91.5871034,3.84540995 93.3629901,1.90658719 95.801171,1.90658719 C98.2235273,1.90658719 100,3.84423775 100,7.65506772 C100,11.5626044 98.4011159,13.69191 95.801171,13.69191 C93.1854014,13.69191 91.5871034,11.5608461 91.5871034,7.65506772 M98.6431757,7.63924299 C98.6431757,4.73276716 97.5934685,3.1344692 95.801171,3.1344692 C93.9924627,3.1344692 92.9591663,4.73276716 92.9591663,7.63924299 C92.9591663,10.6588364 93.9121669,12.4669585 95.801171,12.4669585 C97.6766949,12.4669585 98.6431757,10.6582503 98.6431757,7.63924299" id="Pfad_11" fill="#FFFFF0"></path>
                <path d="M91.2489232,12.6070367 C91.2489232,12.1020729 90.839569,11.6927189 90.3346052,11.6927189 C89.8296414,11.6927189 89.4202873,12.1020729 89.4202873,12.6070367 C89.4202873,13.1120005 89.8296414,13.5213548 90.3346052,13.5213548 C90.577145,13.5215102 90.8097958,13.4252306 90.9812974,13.2537289 C91.152799,13.0822273 91.2490787,12.8495766 91.2489232,12.6070367" id="Pfad_12" fill="#FFFFF0"></path>
            </g>
        </g>
    </g>
</svg>