<svg width="100%" height="100%" viewBox="0 0 205 46" fill="none" xmlns="http://www.w3.org/2000/svg">
<path d="M66.6368 34.8238C60.67 34.8238 56.4842 31.5732 56.4395 26.9422L62.6291 26.7641C62.6734 28.7679 64.232 30.0592 66.6368 30.0592C68.5516 30.0592 69.8426 29.2577 69.8426 28.0109C69.8426 26.7641 68.8187 26.3188 66.9039 25.8735L64.722 25.3837C59.8681 24.404 57.5971 22.2221 57.5971 18.348C57.5971 13.7615 61.5605 10.5555 67.082 10.5555C72.7817 10.5555 76.9675 13.8061 77.1013 18.4816L70.9559 18.6152C70.8669 16.6559 69.1302 15.3201 67.082 15.3201C65.3901 15.3201 64.1429 16.2552 64.1429 17.5465C64.1429 18.5261 64.811 19.1941 66.1915 19.5058L68.3735 19.9956C73.6279 21.1089 76.4775 23.3798 76.4775 27.2093C76.4775 31.7068 72.3812 34.8238 66.6368 34.8238ZM106.798 10.9554C111.697 10.9554 115.037 14.6071 115.037 20.1291V33.9785H108.224V21.1533C108.224 18.1697 106.798 16.4329 104.483 16.4329C102.034 16.4329 100.564 18.3032 100.564 21.5096V33.9785H93.7504V21.1533C93.7504 18.1697 92.2808 16.4329 89.7872 16.4329C87.2489 16.4329 85.7345 18.3032 85.7345 21.5096V33.9785H78.9211V11.4007H85.7345L85.6012 15.5422C86.6698 12.6922 89.03 10.9554 92.1027 10.9554C95.6653 10.9554 98.3818 12.7367 99.7176 15.7649C100.742 12.6922 103.236 10.9554 106.798 10.9554ZM124.454 34.2457C120.134 34.2457 117.462 31.9745 117.462 28.2339C117.462 24.1815 121.158 21.5096 127.303 20.9751L131.089 20.6189V19.7728C131.089 17.6798 129.619 16.2548 127.437 16.2548C125.299 16.2548 123.785 17.6352 123.696 19.6837L117.239 19.5501C117.462 14.3399 121.603 10.7328 127.437 10.7328C133.582 10.7328 137.858 14.6071 137.858 20.1291V27.076C137.858 29.4808 137.991 32.2418 138.303 33.9785H131.712C131.489 33.2215 131.356 31.841 131.356 29.8816H131.222C130.332 32.5535 127.972 34.2457 124.454 34.2457ZM127.081 29.9706C129.753 29.9706 131.178 27.8331 131.178 25.1166V24.226L128.239 24.5377C125.7 24.7604 124.231 25.8737 124.231 27.6549C124.231 29.08 125.344 29.9706 127.081 29.9706ZM154.156 10.9554C160.569 10.9554 165.022 15.7649 165.022 22.7119C165.022 29.6589 160.569 34.4684 154.156 34.4684C151.44 34.4684 149.213 33.4441 147.61 31.5738V42.4396H140.796V11.4007H147.61V13.85C149.213 11.9797 151.44 10.9554 154.156 10.9554ZM152.686 28.8573C155.893 28.8573 158.119 26.3635 158.119 22.7119C158.119 19.0603 155.848 16.5219 152.686 16.5219C149.436 16.5219 147.209 19.0603 147.209 22.7119C147.209 26.3635 149.436 28.8573 152.686 28.8573ZM175.533 34.2012C170.545 34.2012 167.027 30.9503 167.027 26.4971C167.027 25.1166 167.205 23.6916 167.517 22.3111L171.881 1.7373L178.382 3.02873L174.018 23.6025C173.929 24.1369 173.84 24.7604 173.84 25.2947C173.84 27.2542 175.265 28.6346 177.492 28.6346C177.848 28.6346 177.937 28.6346 178.338 28.5901L177.269 34.0676C176.512 34.1566 175.978 34.2012 175.533 34.2012ZM183.654 43.1076C182.496 43.1076 181.428 43.0185 180.537 42.7513V36.9622C180.938 37.0957 181.695 37.1848 182.496 37.1848C184.723 37.1848 186.504 36.784 187.662 34.3793L188.018 33.5777L178.667 11.4007H185.881L191.714 25.9182L197.059 11.4007H204.094L194.832 34.1121C192.472 40.0349 188.642 43.1076 183.654 43.1076Z" fill="currentcolor"></path>
<path fill-rule="evenodd" clip-rule="evenodd" d="M45.3546 16.2559V31.0694C44.9491 31.0694 44.6085 30.7757 44.5354 30.3768C44.2717 28.9378 43.1985 27.7629 41.7465 27.4063C36.5696 26.1334 33.4389 22.6373 31.1535 20.0835L31.0051 19.9191C28.0788 16.6533 26.3846 14.9501 22.7845 14.9501C21.5356 14.9501 20.5454 15.5199 19.3658 16.9164C17.9996 18.5333 16.8422 20.7351 15.2324 23.9093L15.1169 24.136C14.4431 25.4649 13.6795 26.9707 12.8342 28.4276C11.8493 30.1272 10.8999 31.5094 9.93103 32.6543C7.99057 34.9459 5.77898 36.4962 3.35584 37.2624C2.0266 37.6827 1.06969 38.7729 0.820118 40.0825C0.744791 40.4778 0.402627 40.7656 0.000244901 40.7656L0.000244141 25.9547H0.0580892C0.412577 25.9547 0.722341 26.1721 0.868825 26.4949C1.0842 26.9696 1.57471 27.2401 2.05272 27.2401C2.29449 27.2401 2.65005 27.1698 2.9665 26.8356L3.02073 26.7787C3.22962 26.5298 3.4394 26.2614 3.64385 25.9787C3.76474 25.8134 3.88741 25.6374 4.01096 25.4543C5.01542 23.9627 5.98254 22.0942 7.14256 19.8062L7.251 19.592C7.92834 18.2577 8.69546 16.7448 9.54436 15.279C10.5248 13.5857 11.4706 12.207 12.4351 11.0639C15.3418 7.62293 18.8236 5.87891 22.7845 5.87891C30.6095 5.87891 34.6496 10.391 37.5998 13.6852L37.7598 13.8648C39.3456 15.6346 40.575 16.951 41.9483 17.7822C42.2239 17.9484 42.5208 18.0328 42.831 18.0328C43.0559 18.0328 43.2799 17.9866 43.4897 17.9004C43.6995 17.815 43.8941 17.6888 44.0603 17.5288C44.2584 17.3383 44.4057 17.109 44.4956 16.8565C44.6218 16.5019 44.945 16.2559 45.3213 16.2559H45.3546Z" fill="white"></path>
<path d="M41.9267 26.6723C36.9782 25.4554 34.012 22.1434 31.7168 19.5798L31.5675 19.4136C28.6386 16.1451 26.7505 14.1939 22.7843 14.1939C21.3594 14.1939 20.1522 14.8135 18.7887 16.4286C17.3167 18.1709 16.0642 20.5985 14.5584 23.5674L14.4588 23.763C13.7708 25.1194 13.0215 26.5985 12.1806 28.0483C11.3397 29.499 10.4072 30.9213 9.3539 32.1657C7.75654 34.0529 5.72274 35.7213 3.12804 36.5418C1.27557 37.1276 2.66667e-08 38.8236 2.66667e-08 40.7658V40.8192C2.66667e-08 43.3241 2.03025 45.3543 4.53517 45.3543H40.8192C43.3241 45.3543 45.3543 43.3241 45.3543 40.8192V31.0697C45.3543 28.9915 43.9445 27.1683 41.9267 26.6723ZM40.8192 0H4.53517C2.03025 0 0 2.03025 0 4.53517V25.955C0 27.7968 2.2498 28.6937 3.5156 27.355C3.53871 27.331 3.56093 27.307 3.58404 27.283C3.81249 27.0128 4.0365 26.7257 4.25605 26.4225C4.38494 26.2457 4.51206 26.0634 4.63828 25.8759C5.68985 24.315 6.68275 22.3852 7.81698 20.1478L7.92543 19.9336C8.61255 18.5789 9.36012 17.1051 10.1984 15.658C11.0357 14.2117 11.9646 12.793 13.0126 11.5513C15.2731 8.87567 18.4127 6.63475 22.7843 6.63475C30.2724 6.63475 34.1764 10.9957 37.0369 14.1904L37.1969 14.3691C38.7871 16.1433 40.0743 17.5318 41.557 18.4287C43.2245 19.4367 45.3543 18.2056 45.3543 16.2562V4.53517C45.3543 2.03025 43.3241 0 40.8192 0Z" fill="#FF4F44"></path>
</svg>