<svg xmlns="http://www.w3.org/2000/svg" xmlns:xlink="http://www.w3.org/1999/xlink" width="100%" height="auto" viewBox="0 0 170.619 30.306">
    <defs>
      <clipPath id="clip-path">
        <rect id="Rechteck_1" data-name="Rechteck 1" width="170.619" height="30.306" fill="none"></rect>
      </clipPath>
    </defs>
    <g id="Gruppe_2" data-name="Gruppe 2" transform="translate(0 0)">
      <g id="Gruppe_1" data-name="Gruppe 1" transform="translate(0 0)" clip-path="url(#clip-path)">
        <path id="Pfad_1" data-name="Pfad 1" d="M86.028,19.306l-3.41-1.042c-.852-.284-.947-.379-.947-.758s0-1.515,1.989-1.515a3.772,3.772,0,0,1,2.463.947,1.745,1.745,0,0,0,1.137.474,1.568,1.568,0,0,0,1.137-.474,1.547,1.547,0,0,0,0-2.272,6.5,6.5,0,0,0-4.641-1.894c-2.178,0-5.4,1.231-5.4,4.64a3.807,3.807,0,0,0,3.125,3.978l3.789,1.231c.853.284.947.758.947,1.137,0,.568,0,1.7-2.557,1.7a5.145,5.145,0,0,1-2.746-1.042,1.63,1.63,0,0,0-2.273.095,1.548,1.548,0,0,0,0,2.273,7.319,7.319,0,0,0,5.019,1.989c5.4,0,5.967-3.5,5.967-4.924.095-2.368-1.137-3.789-3.6-4.546" transform="translate(-30.624 -5.005)" fill="CurrentColor"></path>
        <path id="Pfad_2" data-name="Pfad 2" d="M114.782,12.615a4.654,4.654,0,0,0-3.694,1.8,5.353,5.353,0,0,0-4.356-1.8,4.733,4.733,0,0,0-2.936.947,1.671,1.671,0,0,0-1.421-.758,1.6,1.6,0,0,0-1.61,1.61V26.727a1.61,1.61,0,0,0,3.22,0V18.961a2.739,2.739,0,0,1,2.652-3.031c1.61,0,2.368.474,2.368,3.031v7.766a1.6,1.6,0,0,0,1.61,1.61,1.66,1.66,0,0,0,1.61-1.61V18.771c0-.852.189-2.936,2.273-2.936,1.61,0,2.367.474,2.367,3.031v7.861a1.6,1.6,0,0,0,1.61,1.61,1.68,1.68,0,0,0,1.7-1.61V19.245c.285-4.64-1.421-6.63-5.4-6.63" transform="translate(-39.489 -4.944)" fill="CurrentColor"></path>
        <path id="Pfad_3" data-name="Pfad 3" d="M150.434,25.651a3.119,3.119,0,0,1-.758-2.083V14.476a1.6,1.6,0,0,0-1.61-1.61,1.634,1.634,0,0,0-1.421.852,5.2,5.2,0,0,0-3.031-.947c-3.694,0-6.251,2.652-6.251,6.63v2.462c0,3.978,2.463,6.724,6.156,6.724a5.867,5.867,0,0,0,3.883-1.515,3.727,3.727,0,0,0,.758.947,1.747,1.747,0,0,0,1.137.473,1.616,1.616,0,0,0,1.61-1.61,1.427,1.427,0,0,0-.379-1.042c0-.094,0-.189-.095-.189m-7.008-.379c-1.8,0-2.841-1.137-2.841-3.031v-3.22a2.69,2.69,0,0,1,2.936-2.936,2.818,2.818,0,0,1,2.841,3.126v3.03a2.763,2.763,0,0,1-2.936,3.031" transform="translate(-53.832 -5.005)" fill="CurrentColor"></path>
        <path id="Pfad_4" data-name="Pfad 4" d="M169.435,12.615a4.641,4.641,0,0,0-3.031.947,1.558,1.558,0,0,0-1.421-.757,1.6,1.6,0,0,0-1.61,1.61V31.272a1.61,1.61,0,0,0,3.221,0V27.863a6.958,6.958,0,0,0,2.841.663c3.788,0,6.062-2.463,6.062-6.535V19.15c0-4.072-2.273-6.535-6.062-6.535m0,3.315c1.8,0,2.652.947,2.652,2.841v3.6c0,1.894-.947,2.841-2.652,2.841a2.55,2.55,0,0,1-2.841-2.841V19.055a3.044,3.044,0,0,1,2.841-3.126" transform="translate(-64.025 -4.944)" fill="CurrentColor"></path>
        <path id="Pfad_5" data-name="Pfad 5" d="M193.181,22.337h-.947V7.373a1.66,1.66,0,0,0-1.61-1.61h-2.653a1.6,1.6,0,0,0-1.609,1.61,1.679,1.679,0,0,0,1.609,1.7h.947V22.432h-1.042a1.61,1.61,0,0,0,0,3.22h5.3a1.6,1.6,0,0,0,1.61-1.61,1.62,1.62,0,0,0-1.61-1.7" transform="translate(-72.997 -2.259)" fill="CurrentColor"></path>
        <path id="Pfad_6" data-name="Pfad 6" d="M213.3,13.6a1.586,1.586,0,0,0-1.042-.853,1.7,1.7,0,0,0-1.989,1.137l-2.936,8.05-3.031-8.05a1.741,1.741,0,0,0-1.61-1.137.853.853,0,0,0-.474.095,1.423,1.423,0,0,0-.947.853,1.843,1.843,0,0,0-.095,1.231l4.356,11.839L204.494,29.7h-.568a1.61,1.61,0,1,0,0,3.22h1.136a1.961,1.961,0,0,0,2.084-1.326l6.061-16.763A1.163,1.163,0,0,0,213.3,13.6" transform="translate(-78.816 -4.978)" fill="CurrentColor"></path>
        <path id="Pfad_7" data-name="Pfad 7" d="M34.758,32.163c-2.841-.853-4.925-3.031-6.819-5.493a2.621,2.621,0,0,1-.853.095,2.951,2.951,0,0,1-2.936-2.936,3.189,3.189,0,0,1,.474-1.61c-2.178-2.746-4.451-4.925-8.051-5.4a2.885,2.885,0,0,1-2.936,2.462,2.852,2.852,0,0,1-2.557-1.61C8.618,19,7.292,21.46,5.872,24.018a20.412,20.412,0,0,1-3.6,5.209v.379A2.855,2.855,0,0,1,0,32.447v1.989A2.49,2.49,0,0,0,2.367,36.9h32.3a2.3,2.3,0,0,0,2.273-2.273,3.066,3.066,0,0,1-2.178-2.462" transform="translate(0 -6.592)" fill="#bf0418"></path>
        <path id="Pfad_8" data-name="Pfad 8" d="M34.723,0H2.428A2.3,2.3,0,0,0,.155,2.273V20.268a3.561,3.561,0,0,1,1.421.853,25.9,25.9,0,0,0,2.936-4.451c1.515-2.747,3.22-5.778,6.346-7.2a2.983,2.983,0,0,1,2.936-2.746,3.033,3.033,0,0,1,2.746,1.8c4.357.379,7.1,3.031,9.471,5.967a2.618,2.618,0,0,1,1.231-.285,2.951,2.951,0,0,1,2.936,2.936,3.056,3.056,0,0,1-.758,1.989A13.561,13.561,0,0,0,35.1,23.866a3.091,3.091,0,0,1,1.989-1.61V2.273A2.326,2.326,0,0,0,34.723,0" transform="translate(-0.061 0)" fill="#e43417"></path>
        <path id="Pfad_9" data-name="Pfad 9" d="M37.091,26.59A3.089,3.089,0,0,0,35.1,28.2c-2.272-.758-4.072-2.557-5.682-4.736a3.054,3.054,0,0,0,.758-1.989,2.951,2.951,0,0,0-2.936-2.936,2.626,2.626,0,0,0-1.231.284c-2.367-3.031-5.114-5.588-9.471-5.967a3.034,3.034,0,0,0-2.747-1.8A2.984,2.984,0,0,0,10.857,13.8C7.732,15.32,6.027,18.256,4.512,21a25.909,25.909,0,0,1-2.936,4.451A2.748,2.748,0,0,0,.155,24.6v5.778a2.934,2.934,0,0,0,2.273-2.842v-.379a24.351,24.351,0,0,0,3.6-5.208c1.421-2.557,2.841-5.02,5.208-6.346a2.964,2.964,0,0,0,2.557,1.61,3.032,3.032,0,0,0,2.936-2.462c3.6.474,5.967,2.652,8.05,5.4a3.2,3.2,0,0,0-.473,1.61A2.95,2.95,0,0,0,27.242,24.7c.284,0,.568-.095.852-.095,1.894,2.368,3.883,4.546,6.819,5.493a2.923,2.923,0,0,0,2.273,2.463V26.59Z" transform="translate(-0.061 -4.334)" fill="#fff"></path>
        <path id="Pfad_10" data-name="Pfad 10" d="M228.475,18.27c.441,3.444,1.736,5.125,4.712,5.125s4.27-1.818,4.27-3.775c0-2.727-1.461-3.912-4.215-3.912h-1.377V13.724h.578c1.047,0,4.353-.138,4.353-3.086,0-2.011-1.377-3.223-3.582-3.223-2.231,0-3.526,1.4-3.829,3.664l-2.149-.386a5.733,5.733,0,0,1,6.006-5.345C236.464,5.349,239,7.14,239,10.5a4.031,4.031,0,0,1-3,3.995v.055c1.9.441,3.664,2.121,3.664,5.125,0,3.333-2.617,5.786-6.447,5.786-3.691,0-6.419-1.984-6.97-6.75Z" transform="translate(-88.663 -2.096)" fill="CurrentColor"></path>
        <path id="Pfad_11" data-name="Pfad 11" d="M256.969,15.157c0-6.5,3.03-9.808,7.19-9.808,4.133,0,7.164,3.306,7.164,9.808,0,6.667-2.728,10.3-7.164,10.3-4.463,0-7.19-3.636-7.19-10.3m12.039-.027c0-4.959-1.791-7.686-4.849-7.686-3.086,0-4.849,2.727-4.849,7.686,0,5.152,1.626,8.237,4.849,8.237,3.2,0,4.849-3.086,4.849-8.237" transform="translate(-100.704 -2.096)" fill="CurrentColor"></path>
        <path id="Pfad_12" data-name="Pfad 12" d="M254.01,34.367a1.56,1.56,0,1,0-1.56,1.56,1.559,1.559,0,0,0,1.56-1.56" transform="translate(-98.322 -12.857)" fill="CurrentColor"></path>
      </g>
    </g>
  </svg>